{
  "asset": {
    "generator": "Khronos glTF Blender I/O v4.4.55",
    "version": "2.0"
  },
  "scene": 0,
  "scenes": [
    {
      "name": "Scene",
      "nodes": [
        0
      ]
    }
  ],
  "nodes": [
    {
      "mesh": 0,
      "name": "Mesh_0"
    }
  ],
  "materials": [
    {
      "doubleSided": true,
      "emissiveFactor": [
        1,
        1,
        1
      ],
      "emissiveTexture": {
        "index": 0
      },
      "name": "Material_0.001",
      "normalTexture": {
        "index": 1
      },
      "pbrMetallicRoughness": {
        "baseColorTexture": {
          "index": 2
        },
        "metallicRoughnessTexture": {
          "index": 3
        }
      }
    }
  ],
  "meshes": [
    {
      "name": "Mesh_0",
      "primitives": [
        {
          "attributes": {
            "POSITION": 0,
            "NORMAL": 1,
            "TEXCOORD_0": 2
          },
          "indices": 3,
          "material": 0
        }
      ]
    }
  ],
  "textures": [
    {
      "sampler": 0,
      "source": 0
    },
    {
      "sampler": 0,
      "source": 1
    },
    {
      "sampler": 0,
      "source": 2
    },
    {
      "sampler": 0,
      "source": 3
    }
  ],
  "images": [
    {
      "name": "Image_3",
      "uri": "Image_3.jpg"
    },
    {
      "name": "normal",
      "uri": "normal.png"
    },
    {
      "name": "Image_0",
      "uri": "Image_0.jpg"
    },
    {
      "name": "Image_1",
      "uri": "Image_1.jpg"
    }
  ],
  "accessors": [
    {
      "bufferView": 0,
      "componentType": 5126,
      "count": 492377,
      "max": [
        0.36856743693351746,
        0.019999997690320015,
        0.3685555160045624
      ],
      "min": [
        -0.36930570006370544,
        -0.019999999552965164,
        -0.3692030906677246
      ],
      "type": "VEC3"
    },
    {
      "bufferView": 1,
      "componentType": 5126,
      "count": 492377,
      "type": "VEC3"
    },
    {
      "bufferView": 2,
      "componentType": 5126,
      "count": 492377,
      "type": "VEC2"
    },
    {
      "bufferView": 3,
      "componentType": 5125,
      "count": 695235,
      "type": "SCALAR"
    }
  ],
  "bufferViews": [
    {
      "buffer": 0,
      "byteLength": 5908524,
      "byteOffset": 0,
      "target": 34962
    },
    {
      "buffer": 0,
      "byteLength": 5908524,
      "byteOffset": 5908524,
      "target": 34962
    },
    {
      "buffer": 0,
      "byteLength": 3939016,
      "byteOffset": 11817048,
      "target": 34962
    },
    {
      "buffer": 0,
      "byteLength": 2780940,
      "byteOffset": 15756064,
      "target": 34963
    }
  ],
  "samplers": [
    {
      "magFilter": 9729,
      "minFilter": 9987
    }
  ],
  "buffers": [
    {
      "byteLength": 49200068,
      "uri": "environment-diamond-fields.bin"
    }
  ]
}