<svg width="1200" height="720" viewBox="0 0 1200 720" fill="none" xmlns="http://www.w3.org/2000/svg">
  <defs>
    <linearGradient id="metal" x1="174" y1="276" x2="970" y2="442" gradientUnits="userSpaceOnUse">
      <stop stop-color="#f8fafc"/>
      <stop offset="0.18" stop-color="#8fb9c8"/>
      <stop offset="0.42" stop-color="#17212c"/>
      <stop offset="0.68" stop-color="#f3f4f6"/>
      <stop offset="1" stop-color="#0f172a"/>
    </linearGradient>
    <linearGradient id="red enamel" x1="244" y1="222" x2="925" y2="498" gradientUnits="userSpaceOnUse">
      <stop stop-color="#ef4444"/>
      <stop offset="0.4" stop-color="#7f1d1d"/>
      <stop offset="0.72" stop-color="#dc2626"/>
      <stop offset="1" stop-color="#450a0a"/>
    </linearGradient>
    <linearGradient id="gold" x1="221" y1="176" x2="950" y2="571" gradientUnits="userSpaceOnUse">
      <stop stop-color="#fde68a"/>
      <stop offset="0.25" stop-color="#d97706"/>
      <stop offset="0.58" stop-color="#fbbf24"/>
      <stop offset="1" stop-color="#92400e"/>
    </linearGradient>
    <filter id="glow" x="-20%" y="-20%" width="140%" height="140%" color-interpolation-filters="sRGB">
      <feGaussianBlur stdDeviation="10" result="blur"/>
      <feColorMatrix in="blur" type="matrix" values="0 0 0 0 0.94 0 0 0 0 0.17 0 0 0 0 0.17 0 0 0 0.72 0"/>
      <feBlend in="SourceGraphic"/>
    </filter>
    <pattern id="ornament" width="76" height="76" patternUnits="userSpaceOnUse" patternTransform="rotate(18)">
      <path d="M38 8c16 0 30 14 30 30S54 68 38 68 8 54 8 38 22 8 38 8Z" stroke="#facc15" stroke-width="3" opacity="0.52"/>
      <path d="M38 16v44M16 38h44M23 23l30 30M53 23 23 53" stroke="#22d3ee" stroke-width="2" opacity="0.36"/>
    </pattern>
  </defs>

  <rect width="1200" height="720" fill="#05030b"/>
  <path d="M75 91h880l170 170v368H245L75 459V91Z" fill="#100617" stroke="#22d3ee" stroke-opacity=".42" stroke-width="2"/>
  <path d="M108 124h812l150 150v322H260L108 444V124Z" fill="url(#ornament)" opacity=".18"/>
  <ellipse cx="581" cy="392" rx="454" ry="126" fill="#ef4444" opacity=".16" filter="url(#glow)"/>

  <g filter="url(#glow)">
    <path d="M184 375h619c30 0 47 27 34 54l-6 13H263c-38 0-70-29-75-67h-4Z" fill="#1f2937"/>
    <path d="M270 318h520l68 57H215l55-57Z" fill="url(#metal)"/>
    <path d="M314 283h210l46 35H270l44-35Z" fill="url(#red enamel)"/>
    <path d="M553 285h132l75 33H593l-40-33Z" fill="#121826"/>
    <path d="M754 315h192c20 0 38 11 47 29l22 44H840l-86-73Z" fill="url(#metal)"/>
    <path d="M942 342h142c26 0 48 21 48 48v12H986l-44-60Z" fill="#0f172a"/>
    <path d="M1015 397h94v42h-72l-22-42Z" fill="#111827"/>
    <path d="M203 322h-87c-18 0-32 14-32 32v21h120l35-47-36-6Z" fill="#121826"/>
    <path d="M132 375h76l19 67h-95v-67Z" fill="#0f172a"/>
    <path d="M384 442h78l-52 116h-81l55-116Z" fill="#15101a"/>
    <path d="M455 442h56l-26 89h-72l42-89Z" fill="#2b1117"/>
    <path d="M592 442h132c-14 33-43 54-78 54h-64c-9 0-15-9-11-17l21-37Z" fill="#111827"/>
    <path d="M595 316h142l27 20H612l-17-20Z" fill="#f8fafc" opacity=".42"/>
    <path d="M278 341h508" stroke="#facc15" stroke-width="8" stroke-linecap="round"/>
    <path d="M324 302h204" stroke="#facc15" stroke-width="7" stroke-linecap="round"/>
    <path d="M335 365c33-25 70-25 103 0s70 25 103 0 70-25 103 0" stroke="#22d3ee" stroke-width="5" stroke-linecap="round" opacity=".88"/>
  </g>

  <g transform="translate(632 356)" filter="url(#glow)">
    <circle r="55" fill="#7f1d1d" stroke="#facc15" stroke-width="6"/>
    <path d="M0-37c13 0 23 10 23 23S13 9 0 9c-9 0-17-5-21-12 2 23 21 40 44 40 0-13 10-23 23-23-14-17-35-27-58-27Z" fill="#facc15"/>
    <path d="M37 0c0 13-10 23-23 23S-9 13-9 0c0-9 5-17 12-21-23 2-40 21-40 44 13 0 23 10 23 23 17-14 27-35 27-58Z" fill="#facc15" transform="rotate(90)"/>
    <path d="M37 0c0 13-10 23-23 23S-9 13-9 0c0-9 5-17 12-21-23 2-40 21-40 44 13 0 23 10 23 23 17-14 27-35 27-58Z" fill="#facc15" transform="rotate(180)"/>
    <path d="M37 0c0 13-10 23-23 23S-9 13-9 0c0-9 5-17 12-21-23 2-40 21-40 44 13 0 23 10 23 23 17-14 27-35 27-58Z" fill="#facc15" transform="rotate(270)"/>
  </g>

  <text x="92" y="640" fill="#f8fafc" font-family="Arial Black, Arial, sans-serif" font-size="44" letter-spacing="6">AKM BORJGALI PRO</text>
  <text x="92" y="681" fill="#22d3ee" font-family="Arial, sans-serif" font-size="20" letter-spacing="5">GEORGIAN ORNAMENT WEAPON SKIN</text>
</svg>
