{
	"asset":{
		"generator":"Khronos glTF Blender I/O v5.1.20",
		"version":"2.0"
	},
	"scene":0,
	"scenes":[
		{
			"name":"Scene",
			"nodes":[
				0
			]
		}
	],
	"nodes":[
		{
			"mesh":0,
			"name":"Stadium",
			"translation":[
				0.0010234713554382324,
				0.24790099263191223,
				0.0009570121765136719
			]
		}
	],
	"materials":[
		{
			"doubleSided":true,
			"emissiveFactor":[
				1,
				1,
				1
			],
			"emissiveTexture":{
				"index":0
			},
			"name":"Material_0",
			"normalTexture":{
				"index":1
			},
			"pbrMetallicRoughness":{
				"baseColorTexture":{
					"index":2
				},
				"metallicRoughnessTexture":{
					"index":3
				}
			}
		}
	],
	"meshes":[
		{
			"name":"Stadium_Mesh",
			"primitives":[
				{
					"attributes":{
						"POSITION":0,
						"NORMAL":1,
						"TEXCOORD_0":2
					},
					"indices":3,
					"material":0
				}
			]
		}
	],
	"textures":[
		{
			"sampler":0,
			"source":0
		},
		{
			"sampler":0,
			"source":1
		},
		{
			"sampler":0,
			"source":2
		},
		{
			"sampler":0,
			"source":3
		}
	],
	"images":[
		{
			"mimeType":"image/jpeg",
			"name":"Image_3",
			"uri":"Image_3.jpg"
		},
		{
			"mimeType":"image/jpeg",
			"name":"Image_2",
			"uri":"Image_2.jpg"
		},
		{
			"mimeType":"image/png",
			"name":"texture",
			"uri":"texture.png"
		},
		{
			"mimeType":"image/jpeg",
			"name":"Image_1",
			"uri":"Image_1.jpg"
		}
	],
	"accessors":[
		{
			"bufferView":0,
			"componentType":5126,
			"count":921433,
			"max":[
				0.9486610293388367,
				0.24584700167179108,
				0.9472339749336243
			],
			"min":[
				-0.9507079720497131,
				-0.24790099263191223,
				-0.9491479992866516
			],
			"type":"VEC3"
		},
		{
			"bufferView":1,
			"componentType":5126,
			"count":921433,
			"type":"VEC3"
		},
		{
			"bufferView":2,
			"componentType":5126,
			"count":921433,
			"type":"VEC2"
		},
		{
			"bufferView":3,
			"componentType":5125,
			"count":4694994,
			"type":"SCALAR"
		}
	],
	"bufferViews":[
		{
			"buffer":0,
			"byteLength":11057196,
			"byteOffset":0,
			"target":34962
		},
		{
			"buffer":0,
			"byteLength":11057196,
			"byteOffset":11057196,
			"target":34962
		},
		{
			"buffer":0,
			"byteLength":7371464,
			"byteOffset":22114392,
			"target":34962
		},
		{
			"buffer":0,
			"byteLength":18779976,
			"byteOffset":29485856,
			"target":34963
		}
	],
	"samplers":[
		{
			"magFilter":9729,
			"minFilter":9987
		}
	],
	"buffers":[
		{
			"byteLength":48265832,
			"uri":"stadium.bin"
		}
	]
}
